<?xml version="1.0" encoding="utf-8"?>
<!-- Generator: Adobe Illustrator 16.0.0, SVG Export Plug-In . SVG Version: 6.00 Build 0)  -->
<!DOCTYPE svg PUBLIC "-//W3C//DTD SVG 1.1//EN" "http://www.w3.org/Graphics/SVG/1.1/DTD/svg11.dtd">
<svg version="1.1" id="Calque_1" xmlns="http://www.w3.org/2000/svg" xmlns:xlink="http://www.w3.org/1999/xlink" x="0px" y="0px"
	 width="1280px" height="680px" viewBox="0 0 1280 680" enable-background="new 0 0 1280 680" xml:space="preserve">
<g>
	<path fill="#D7EBFE" stroke="#D7EBFE" d="M-110-31l43,733l-26-588L-110-31z"/>
	<path fill="#FCF8FD" stroke="#FCF8FD" d="M-110-31l17,145L95,76L-110-31z"/>
	<path fill="#F7F5FA" stroke="#F7F5FA" d="M-110-31L95,76l33-177L-110-31z"/>
	<path fill="#ECECF5" stroke="#ECECF5" d="M128-101L95,76l165-176L128-101z"/>
	<path fill="#DEE4F0" stroke="#DEE4F0" d="M128-101l132,1l281-27L128-101z"/>
	<path fill="#E8E8F3" stroke="#E8E8F3" d="M260-100L95,76l156,37L260-100z"/>
	<path fill="#E1E5F1" stroke="#E1E5F1" d="M260-100l-9,213l83-191L260-100z"/>
	<path fill="#D8E1EE" stroke="#D8E1EE" d="M260-100l74,22l207-49L260-100z"/>
	<path fill="#DBE1F0" stroke="#DBE1F0" d="M334-78l-83,191l159-3L334-78z"/>
	<path fill="#D0DDED" stroke="#D0DDED" d="M334-78l76,188l159-56L334-78z"/>
	<path fill="#CBDCEC" stroke="#CBDCEC" d="M334-78L569,54l-28-181L334-78z"/>
	<path fill="#B9D6E8" stroke="#B9D6E8" d="M541-127l28,181L687-87L541-127z"/>
	<path fill="#97CBD3" stroke="#97CBD3" d="M541-127l146,40l494-24L541-127z"/>
	<path fill="#AFD3E5" stroke="#AFD3E5" d="M687-87L569,54l155,45L687-87z"/>
	<path fill="#A2CFDB" stroke="#A2CFDB" d="M687-87l37,186l77-131L687-87z"/>
	<path fill="#94CAD1" stroke="#94CAD1" d="M687-87l114,55l156-30L687-87z"/>
	<path fill="#88C0BF" stroke="#88C0BF" d="M687-87l270,25l224-49L687-87z"/>
	<path fill="#9ACBD6" stroke="#9ACBD6" d="M801-32L724,99l75-18L801-32z"/>
	<path fill="#8EC8CC" stroke="#8EC8CC" d="M801-32l-2,113L957-62L801-32z"/>
	<path fill="#88C0C2" stroke="#88C0C2" d="M957-62L799,81l220,48L957-62z"/>
	<path fill="#81B8B2" stroke="#81B8B2" d="M957-62l62,191l89-64L957-62z"/>
	<path fill="#80B4AA" stroke="#80B4AA" d="M957-62l151,127l73-176L957-62z"/>
	<path fill="#80AB9A" stroke="#80AB9A" d="M1181-111l-73,176l174-25L1181-111z"/>
	<path fill="#80A894" stroke="#80A894" d="M1181-111l101,151l-62-146L1181-111z"/>
	<path fill="#80A289" stroke="#80A289" d="M1220-106l62,146l131-55L1220-106z"/>
	<path fill="#7F9A80" stroke="#7F9A80" d="M1413-15l-131,55l167,31L1413-15z"/>
	<path fill="#91D3D9" stroke="#91D3D9" d="M-93,114l26,588l19-155L-93,114z"/>
	<path fill="#BBE0F8" stroke="#BBE0F8" d="M-93,114l45,433l25-171L-93,114z"/>
	<path fill="#E4ECFD" stroke="#E4ECFD" d="M-93,114l70,262l-2-203L-93,114z"/>
	<path fill="#F6F4FC" stroke="#F6F4FC" d="M-93,114l68,59L95,76L-93,114z"/>
	<path fill="#E9ECFA" stroke="#E9ECFA" d="M95,76l-120,97l73,58L95,76z"/>
	<path fill="#E0E6F7" stroke="#E0E6F7" d="M95,76L48,231l136-6L95,76z"/>
	<path fill="#E2E5F4" stroke="#E2E5F4" d="M95,76l89,149l67-112L95,76z"/>
	<path fill="#CDDAF1" stroke="#CDDAF1" d="M251,113l-67,112l216,8L251,113z"/>
	<path fill="#CEDBEF" stroke="#CEDBEF" d="M251,113l149,120l10-123L251,113z"/>
	<path fill="#BCD2ED" stroke="#BCD2ED" d="M410,110l-10,123l100-1L410,110z"/>
	<path fill="#C1D6EB" stroke="#C1D6EB" d="M410,110l90,122l69-178L410,110z"/>
	<path fill="#B3D2E8" stroke="#B3D2E8" d="M569,54l-69,178L724,99L569,54z"/>
	<path fill="#9AC7E6" stroke="#9AC7E6" d="M724,99L500,232l225,51L724,99z"/>
	<path fill="#8BC2D9" stroke="#8BC2D9" d="M724,99l1,184l84-91L724,99z"/>
	<path fill="#95C8D6" stroke="#95C8D6" d="M724,99l85,93L799,81L724,99z"/>
	<path fill="#84C1C9" stroke="#84C1C9" d="M799,81l10,111l210-63L799,81z"/>
	<path fill="#75B6BF" stroke="#75B6BF" d="M1019,129l-210,63l194,37L1019,129z"/>
	<path fill="#6BABAD" stroke="#6BABAD" d="M1019,129l-16,100h164L1019,129z"/>
	<path fill="#76ADA8" stroke="#76ADA8" d="M1019,129l148,100l-59-164L1019,129z"/>
	<path fill="#71A49C" stroke="#71A49C" d="M1108,65l59,164l81-25L1108,65z"/>
	<path fill="#7DA796" stroke="#7DA796" d="M1108,65l140,139l34-164L1108,65z"/>
	<path fill="#779C88" stroke="#779C88" d="M1282,40l-34,164l147-37L1282,40z"/>
	<path fill="#7D9980" stroke="#7D9980" d="M1282,40l113,127l54-96L1282,40z"/>
	<path fill="#6C8D80" stroke="#6C8D80" d="M1449,71l-54,96l36,156L1449,71z"/>
	<path fill="#397A78" stroke="#397A78" d="M1449,71l-18,252l-7,339L1449,71z"/>
	<path fill="#D3E5FA" stroke="#D3E5FA" d="M-25,173l2,203l71-145L-25,173z"/>
	<path fill="#BADCF6" stroke="#BADCF6" d="M48,231l-71,145l94-1L48,231z"/>
	<path fill="#C5DCF5" stroke="#C5DCF5" d="M48,231l23,144l113-150L48,231z"/>
	<path fill="#B5D5F2" stroke="#B5D5F2" d="M184,225L71,375l154-51L184,225z"/>
	<path fill="#BAD3F0" stroke="#BAD3F0" d="M184,225l41,99l175-91L184,225z"/>
	<path fill="#A6CCED" stroke="#A6CCED" d="M400,233l-175,91l122,35L400,233z"/>
	<path fill="#99C6EA" stroke="#99C6EA" d="M400,233l-53,126l120,15L400,233z"/>
	<path fill="#A0C8EA" stroke="#A0C8EA" d="M400,233l67,141l33-142L400,233z"/>
	<path fill="#82BFE6" stroke="#82BFE6" d="M500,232l-33,142l201,17L500,232z"/>
	<path fill="#7FBEE5" stroke="#7FBEE5" d="M500,232l168,159l57-108L500,232z"/>
	<path fill="#5BB2D4" stroke="#5BB2D4" d="M725,283l-57,108l125,4L725,283z"/>
	<path fill="#6AB7D4" stroke="#6AB7D4" d="M725,283l68,112l16-203L725,283z"/>
	<path fill="#51AECA" stroke="#51AECA" d="M809,192l-16,203l139,7L809,192z"/>
	<path fill="#5DAFC2" stroke="#5DAFC2" d="M809,192l123,210l71-173L809,192z"/>
	<path fill="#419FB0" stroke="#419FB0" d="M1003,229l-71,173l177-7L1003,229z"/>
	<path fill="#509FA6" stroke="#509FA6" d="M1003,229l106,166l58-166H1003z"/>
	<path fill="#469499" stroke="#469499" d="M1167,229l-58,166l139-70L1167,229z"/>
	<path fill="#5B9794" stroke="#5B9794" d="M1167,229l81,96V204L1167,229z"/>
	<path fill="#508C86" stroke="#508C86" d="M1248,204v121l183-2L1248,204z"/>
	<path fill="#628E81" stroke="#628E81" d="M1248,204l183,119l-36-156L1248,204z"/>
	<path fill="#95D0DD" stroke="#95D0DD" d="M-23,376l-25,171L71,375L-23,376z"/>
	<path fill="#88C5CB" stroke="#88C5CB" d="M71,375L-48,547l181-25L71,375z"/>
	<path fill="#92CADF" stroke="#92CADF" d="M71,375l62,147l92-198L71,375z"/>
	<path fill="#7CC0CD" stroke="#7CC0CD" d="M225,324l-92,198l69,8L225,324z"/>
	<path fill="#76BDCD" stroke="#76BDCD" d="M225,324l-23,206l146-26L225,324z"/>
	<path fill="#87C2DC" stroke="#87C2DC" d="M225,324l123,180l-1-145L225,324z"/>
	<path fill="#79BCD6" stroke="#79BCD6" d="M347,359l1,145l119-130L347,359z"/>
	<path fill="#61AEBE" stroke="#61AEBE" d="M467,374L348,504l202,62L467,374z"/>
	<path fill="#55AFC8" stroke="#55AFC8" d="M467,374l83,192l118-175L467,374z"/>
	<path fill="#44A0B0" stroke="#44A0B0" d="M668,391L550,566h168L668,391z"/>
	<path fill="#37A6B9" stroke="#37A6B9" d="M668,391l50,175l75-171L668,391z"/>
	<path fill="#2B979D" stroke="#2B979D" d="M793,395l-75,171l145,1L793,395z"/>
	<path fill="#1F999D" stroke="#1F999D" d="M793,395l70,172l66-86L793,395z"/>
	<path fill="#289FAB" stroke="#289FAB" d="M793,395l136,86l3-79L793,395z"/>
	<path fill="#22969B" stroke="#22969B" d="M932,402l-3,79l180-86L932,402z"/>
	<path fill="#138B86" stroke="#138B86" d="M1109,395l-180,86l174,42L1109,395z"/>
	<path fill="#127F70" stroke="#127F70" d="M1109,395l-6,128l211-16L1109,395z"/>
	<path fill="#23857D" stroke="#23857D" d="M1109,395l205,112l-66-182L1109,395z"/>
	<path fill="#2C7E74" stroke="#2C7E74" d="M1248,325l66,182l117-184L1248,325z"/>
	<path fill="#127058" stroke="#127058" d="M1431,323l-117,184l81,53L1431,323z"/>
	<path fill="#126347" stroke="#126347" d="M1431,323l-36,237l29,102L1431,323z"/>
	<path fill="#8DA792" stroke="#8DA792" d="M-48,547l-19,155l184,21L-48,547z"/>
	<path fill="#87AEA4" stroke="#87AEA4" d="M-48,547l165,176l16-201L-48,547z"/>
	<path fill="#7FA9A2" stroke="#7FA9A2" d="M133,522l-16,201l85-193L133,522z"/>
	<path fill="#7E9A8A" stroke="#7E9A8A" d="M202,530l-85,193l67,9L202,530z"/>
	<path fill="#76988D" stroke="#76988D" d="M202,530l-18,202l186-56L202,530z"/>
	<path fill="#71A4A5" stroke="#71A4A5" d="M202,530l168,146l-22-172L202,530z"/>
	<path fill="#659C9E" stroke="#659C9E" d="M348,504l22,172l180-110L348,504z"/>
	<path fill="#5B8B82" stroke="#5B8B82" d="M550,566L370,676l198,55L550,566z"/>
	<path fill="#4A837B" stroke="#4A837B" d="M550,566l18,165l136-14L550,566z"/>
	<path fill="#428B8A" stroke="#428B8A" d="M550,566l154,151l14-151H550z"/>
	<path fill="#358177" stroke="#358177" d="M718,566l-14,151l72-66L718,566z"/>
	<path fill="#2C8781" stroke="#2C8781" d="M718,566l58,85l87-84L718,566z"/>
	<path fill="#23755F" stroke="#23755F" d="M863,567l-87,84l87,164V567z"/>
	<path fill="#1C6C4E" stroke="#1C6C4E" d="M863,567v248l168-124L863,567z"/>
	<path fill="#177259" stroke="#177259" d="M863,567l168,124l51-71L863,567z"/>
	<path fill="#198276" stroke="#198276" d="M863,567l219,53L929,481L863,567z"/>
	<path fill="#147E6F" stroke="#147E6F" d="M929,481l153,139l21-97L929,481z"/>
	<path fill="#127158" stroke="#127158" d="M1103,523l-21,97l232-113L1103,523z"/>
	<path fill="#12603A" stroke="#12603A" d="M1314,507l-232,113l184,106L1314,507z"/>
	<path fill="#125B31" stroke="#125B31" d="M1314,507l-48,219l129-166L1314,507z"/>
	<path fill="#124E1A" stroke="#124E1A" d="M1395,560l-129,166l158-64L1395,560z"/>
	<path fill="#8F947D" stroke="#8F947D" d="M-67,702l11,110l107-35L-67,702z"/>
	<path fill="#8A967A" stroke="#8A967A" d="M-67,702l118,75l66-54L-67,702z"/>
	<path fill="#828F77" stroke="#828F77" d="M117,723l-66,54l133-45L117,723z"/>
	<path fill="#808276" stroke="#808276" d="M184,732L51,777l159,107L184,732z"/>
	<path fill="#747A72" stroke="#747A72" d="M184,732l26,152l217-106L184,732z"/>
	<path fill="#6F8570" stroke="#6F8570" d="M184,732l243,46l-57-102L184,732z"/>
	<path fill="#617F6D" stroke="#617F6D" d="M370,676l57,102l141-47L370,676z"/>
	<path fill="#5C716C" stroke="#5C716C" d="M568,731l-141,47l42,99L568,731z"/>
	<path fill="#50696A" stroke="#50696A" d="M568,731l-99,146l189-30L568,731z"/>
	<path fill="#457067" stroke="#457067" d="M568,731l90,116l46-130L568,731z"/>
	<path fill="#33645B" stroke="#33645B" d="M704,717l-46,130l205-32L704,717z"/>
	<path fill="#2C6E56" stroke="#2C6E56" d="M704,717l159,98l-87-164L704,717z"/>
	<path fill="#1A573F" stroke="#1A573F" d="M1031,691L863,815l80,36L1031,691z"/>
	<path fill="#155134" stroke="#155134" d="M1031,691l-88,160l139-40L1031,691z"/>
	<path fill="#125C33" stroke="#125C33" d="M1031,691l51,120V620L1031,691z"/>
	<path fill="#125323" stroke="#125323" d="M1082,620v191l184-85L1082,620z"/>
	<path fill="#123C15" stroke="#123C15" d="M1266,726l-184,85l242,65L1266,726z"/>
	<path fill="#123505" stroke="#123505" d="M1266,726l58,150l82-92L1266,726z"/>
	<path fill="#124000" stroke="#124000" d="M1266,726l140,58l18-122L1266,726z"/>
	<path fill="#878279" stroke="#878279" d="M-56,812l266,72L51,777L-56,812z"/>
	<path fill="#405864" stroke="#405864" d="M210,884l1114-8l-855,1L210,884z"/>
	<path fill="#6A6D6F" stroke="#6A6D6F" d="M210,884l259-7l-42-99L210,884z"/>
	<path fill="#1C4B44" stroke="#1C4B44" d="M469,877l855-1l-381-25L469,877z"/>
	<path fill="#3C5B61" stroke="#3C5B61" d="M469,877l474-26l-285-4L469,877z"/>
	<path fill="#255751" stroke="#255751" d="M658,847l285,4l-80-36L658,847z"/>
	<path fill="#123E25" stroke="#123E25" d="M943,851l381,25l-242-65L943,851z"/>
</g>
</svg>
