<?xml version="1.0" encoding="utf-8"?>
<!-- Generator: Adobe Illustrator 16.0.0, SVG Export Plug-In . SVG Version: 6.00 Build 0)  -->
<!DOCTYPE svg PUBLIC "-//W3C//DTD SVG 1.1//EN" "http://www.w3.org/Graphics/SVG/1.1/DTD/svg11.dtd">
<svg version="1.1" id="Calque_1" xmlns="http://www.w3.org/2000/svg" xmlns:xlink="http://www.w3.org/1999/xlink" x="0px" y="0px"
	 width="400px" height="350px" viewBox="220.945 122.64 400 350" enable-background="new 220.945 122.64 400 350"
	 xml:space="preserve">
<ellipse fill="#56B2B2" cx="418.254" cy="287.37" rx="156.841" ry="160.27"/>
<rect x="340.332" y="275.624" fill="#FFFFFF" width="156.876" height="84"/>
<g id="XMLID_1_">
	<g>
		<path fill="#FFFFFF" d="M461.905,177.977c0.01,6.15-3.85,11.39-9.24,13.41l-0.7,0.26l-0.039,0.75c-0.16,3.74-1.78,7.1-4.29,9.53
			c-2.511,2.43-5.91,3.92-9.66,3.92c-1.95,0-3.8-0.41-5.48-1.13l-0.92-0.4l-0.5,0.86c-1.22,2.06-2.95,3.78-5,4.98
			c-2.06,1.21-4.45,1.9-7,1.9c-5,0-9.38-2.65-11.85-6.64l-0.49-0.79l-0.86,0.33c-1.52,0.57-3.16,0.89-4.88,0.89
			c-7.41,0-13.47-5.83-13.93-13.19l-0.05-0.78l-0.75-0.23c-5.79-1.79-10.02-7.22-10.02-13.65c0,0,0-0.01,0-0.02
			c-0.01-6.43,4.21-11.87,10-13.66l0.82-0.26l-0.02-0.87c-0.01-0.17-0.01-0.31-0.01-0.43c0.01-3.89,1.57-7.41,4.09-9.96
			c2.53-2.55,6.02-4.12,9.87-4.13c2.1,0,4.08,0.46,5.86,1.3l0.88,0.41l0.53-0.82c1.26-1.9,2.95-3.46,4.94-4.56
			c1.98-1.1,4.26-1.72,6.69-1.72c4.74,0.01,8.93,2.38,11.46,6.03l0.51,0.74l0.84-0.34c1.63-0.67,3.4-1.04,5.271-1.04
			c3.859,0.01,7.35,1.58,9.87,4.13c2.52,2.55,4.08,6.07,4.09,9.96c0,0.23,0,0.46-0.01,0.69l-0.03,0.84l0.77,0.29
			c5.38,2.02,9.24,7.25,9.24,13.38C461.905,177.957,461.905,177.967,461.905,177.977z"/>
		<path fill="#FFFFFF" d="M461.905,177.957c0-6.13-3.86-11.36-9.24-13.38l-0.77-0.29l0.03-0.84c0.01-0.23,0.01-0.46,0.01-0.69
			c-0.01-3.89-1.57-7.41-4.09-9.96c-2.521-2.55-6.011-4.12-9.87-4.13c-1.87,0-3.641,0.37-5.271,1.04l-0.84,0.34l-0.51-0.74
			c-2.53-3.65-6.72-6.02-11.46-6.03c-2.43,0-4.71,0.62-6.69,1.72c-1.99,1.1-3.68,2.66-4.94,4.56l-0.53,0.82l-0.88-0.41
			c-1.78-0.84-3.76-1.3-5.86-1.3c-3.85,0.01-7.34,1.58-9.87,4.13c-2.52,2.55-4.08,6.07-4.09,9.96c0,0.12,0,0.26,0.01,0.43l0.02,0.87
			l-0.82,0.26c-5.79,1.79-10.01,7.23-10,13.66c0,0.01,0,0.02,0,0.02c0,6.43,4.23,11.86,10.02,13.65l0.75,0.23l0.05,0.78
			c0.46,7.36,6.52,13.19,13.93,13.19c1.72,0,3.36-0.32,4.88-0.89l0.86-0.33l0.49,0.79c2.47,3.99,6.85,6.64,11.85,6.64
			c2.55,0,4.94-0.69,7-1.9c2.05-1.2,3.78-2.92,5-4.98l0.5-0.86l0.92,0.4c1.681,0.72,3.53,1.13,5.48,1.13
			c3.75,0,7.149-1.49,9.66-3.92c2.51-2.43,4.13-5.79,4.29-9.53l0.039-0.75l0.7-0.26c5.391-2.02,9.25-7.26,9.24-13.41
			C461.905,177.967,461.905,177.957,461.905,177.957z M461.365,187.247c-1.77,2.64-4.28,4.74-7.229,6
			c-0.37,4.17-2.301,7.89-5.19,10.56c-2.88,2.68-6.74,4.31-10.97,4.31c-1.92,0-3.761-0.33-5.471-0.95
			c-1.46,2.16-3.42,3.95-5.72,5.21c-2.29,1.25-4.92,1.96-7.71,1.96c-2.74,0-5.32-0.69-7.59-1.9c-2.26-1.21-4.21-2.95-5.68-5.05
			c-1.52,0.47-3.13,0.73-4.81,0.73c-4.17,0-7.98-1.59-10.85-4.2c-2.88-2.61-4.82-6.24-5.27-10.33c-3.17-1.15-5.9-3.25-7.83-5.97
			c-1.92-2.72-3.06-6.04-3.06-9.64c0-3.58,1.12-6.89,3.03-9.6c1.91-2.7,4.61-4.81,7.76-5.97c0.09-4.44,1.93-8.45,4.86-11.34
			c2.93-2.89,6.94-4.68,11.36-4.68c2.1,0,4.1,0.41,5.94,1.13c1.48-1.98,3.4-3.61,5.61-4.74c2.2-1.14,4.7-1.78,7.35-1.78
			c2.59,0,5.05,0.62,7.229,1.71c2.17,1.09,4.07,2.66,5.551,4.57c1.659-0.57,3.449-0.89,5.31-0.89c4.479,0,8.53,1.83,11.46,4.79
			c2.94,2.96,4.76,7.04,4.76,11.56c2.931,1.26,5.42,3.36,7.181,6c1.76,2.64,2.779,5.82,2.79,9.24
			C464.165,181.417,463.135,184.597,461.365,187.247z"/>
	</g>
	<g>
		<path fill="none" stroke="#FFFFFF" stroke-width="0.5" stroke-miterlimit="10" d="M405.805,207.387
			c-1.52,0.47-3.13,0.73-4.81,0.73c-4.17,0-7.98-1.59-10.85-4.2c-2.88-2.61-4.82-6.24-5.27-10.33c-3.17-1.15-5.9-3.25-7.83-5.97
			c-1.92-2.72-3.06-6.04-3.06-9.64c0-3.58,1.12-6.89,3.03-9.6c1.91-2.7,4.61-4.81,7.76-5.97c0.09-4.44,1.93-8.45,4.86-11.34
			c2.93-2.89,6.94-4.68,11.36-4.68c2.1,0,4.1,0.41,5.94,1.13c1.48-1.98,3.4-3.61,5.61-4.74c2.2-1.14,4.7-1.78,7.35-1.78
			c2.59,0,5.05,0.62,7.229,1.71c2.17,1.09,4.07,2.66,5.551,4.57c1.659-0.57,3.449-0.89,5.31-0.89c4.479,0,8.53,1.83,11.46,4.79
			c2.94,2.96,4.76,7.04,4.76,11.56c2.931,1.26,5.42,3.36,7.181,6c1.76,2.64,2.779,5.82,2.79,9.24c-0.011,3.44-1.04,6.62-2.811,9.27
			c-1.77,2.64-4.28,4.74-7.229,6c-0.37,4.17-2.301,7.89-5.19,10.56c-2.88,2.68-6.74,4.31-10.97,4.31c-1.92,0-3.761-0.33-5.471-0.95
			c-1.46,2.16-3.42,3.95-5.72,5.21c-2.29,1.25-4.92,1.96-7.71,1.96c-2.74,0-5.32-0.69-7.59-1.9
			C409.225,211.227,407.275,209.487,405.805,207.387z"/>
		<path fill="none" stroke="#FFFFFF" stroke-width="0.5" stroke-miterlimit="10" d="M407.225,205.417
			c2.47,3.99,6.85,6.64,11.85,6.64c2.55,0,4.94-0.69,7-1.9c2.05-1.2,3.78-2.92,5-4.98l0.5-0.86l0.92,0.4
			c1.681,0.72,3.53,1.13,5.48,1.13c3.75,0,7.149-1.49,9.66-3.92c2.51-2.43,4.13-5.79,4.29-9.53l0.039-0.75l0.7-0.26
			c5.391-2.02,9.25-7.26,9.24-13.41c0-0.01,0-0.02,0-0.02c0-6.13-3.86-11.36-9.24-13.38l-0.77-0.29l0.03-0.84
			c0.01-0.23,0.01-0.46,0.01-0.69c-0.01-3.89-1.57-7.41-4.09-9.96c-2.521-2.55-6.011-4.12-9.87-4.13c-1.87,0-3.641,0.37-5.271,1.04
			l-0.84,0.34l-0.51-0.74c-2.53-3.65-6.72-6.02-11.46-6.03c-2.43,0-4.71,0.62-6.69,1.72c-1.99,1.1-3.68,2.66-4.94,4.56l-0.53,0.82
			l-0.88-0.41c-1.78-0.84-3.76-1.3-5.86-1.3c-3.85,0.01-7.34,1.58-9.87,4.13c-2.52,2.55-4.08,6.07-4.09,9.96
			c0,0.12,0,0.26,0.01,0.43l0.02,0.87l-0.82,0.26c-5.79,1.79-10.01,7.23-10,13.66c0,0.01,0,0.02,0,0.02
			c0,6.43,4.23,11.86,10.02,13.65l0.75,0.23l0.05,0.78c0.46,7.36,6.52,13.19,13.93,13.19c1.72,0,3.36-0.32,4.88-0.89l0.86-0.33
			L407.225,205.417z"/>
	</g>
</g>
<path fill="#FFFFFF" stroke="#494848" stroke-width="4" stroke-miterlimit="10" d="M501.867,379.971
	c0,2.959-2.379,5.358-5.314,5.358H341.569c-2.936,0-5.314-2.399-5.314-5.358V276.502c0-2.959,2.379-5.357,5.314-5.357h154.983
	c2.936,0,5.314,2.398,5.314,5.357V379.971L501.867,379.971z"/>
<path fill="none" stroke="#494848" stroke-width="6" stroke-miterlimit="10" d="M499.208,357.168c0,2.96-2.379,5.358-5.311,5.358
	H343.62c-2.936,0-5.314-2.398-5.314-5.358v-79.535c0-2.959,2.379-5.358,5.314-5.358h150.276c2.934,0,5.313,2.399,5.313,5.358
	V357.168L499.208,357.168z"/>
<polygon fill="#494848" points="452.035,410.573 452.035,385.329 385.48,385.329 385.48,410.573 381.479,410.573 381.479,416.509 
	456.673,416.509 456.673,410.573 "/>
<rect x="409.945" y="252.097" fill="#494848" width="16.5" height="40.273"/>
<polyline fill="#494848" points="393.079,252.097 418.195,226.98 443.312,252.097 "/>
</svg>
