<?xml version="1.0" encoding="utf-8"?>
<!-- Generator: Adobe Illustrator 16.0.0, SVG Export Plug-In . SVG Version: 6.00 Build 0)  -->
<!DOCTYPE svg PUBLIC "-//W3C//DTD SVG 1.1//EN" "http://www.w3.org/Graphics/SVG/1.1/DTD/svg11.dtd">
<svg version="1.1" id="Calque_1" xmlns="http://www.w3.org/2000/svg" xmlns:xlink="http://www.w3.org/1999/xlink" x="0px" y="0px"
	 width="350px" height="250px" viewBox="75 50 350 250" enable-background="new 75 50 350 250" xml:space="preserve">
<g id="Calque_2">
	<ellipse fill="#FFFFFF" cx="242.804" cy="173.159" rx="103.991" ry="106.265"/>
</g>
<g id="Calque_1_1_">
	
		<ellipse fill="#D1C174" stroke="#D1C174" stroke-width="4" stroke-miterlimit="10" cx="244.612" cy="161.237" rx="24.162" ry="24.31"/>
	<path fill="none" stroke="#494848" stroke-width="4" stroke-miterlimit="10" d="M322.341,226.506c0,2.762-2.243,5.006-5.006,5.006
		H171.327c-2.765,0-5.006-2.244-5.006-5.006v-96.66c0-2.766,2.242-5.006,5.006-5.006h146.008c2.763,0,5.006,2.24,5.006,5.006
		V226.506L322.341,226.506z"/>
	<path fill="none" stroke="#494848" stroke-width="12" stroke-miterlimit="10" d="M319.836,205.203c0,2.764-2.241,5.006-5.005,5.006
		H173.259c-2.764,0-5.005-2.242-5.005-5.006v-74.3c0-2.766,2.241-5.007,5.005-5.007h141.573c2.764,0,5.005,2.241,5.005,5.007
		V205.203z"/>
	<circle fill="#494848" cx="242.803" cy="141.57" r="1.477"/>
	<ellipse fill="#494848" cx="232.669" cy="147.806" rx="1.682" ry="1.641"/>
	<ellipse fill="#494848" cx="226.927" cy="162.795" rx="1.763" ry="1.749"/>
	<ellipse fill="#494848" cx="235.48" cy="159.497" rx="2.81" ry="2.584"/>
	<ellipse fill="#494848" cx="253.881" cy="159.497" rx="2.789" ry="2.584"/>
	<ellipse fill="#494848" cx="262.412" cy="170" rx="1.56" ry="1.518"/>
	<ellipse fill="#494848" cx="253.881" cy="177.22" rx="1.968" ry="1.928"/>
	<ellipse fill="#494848" cx="234.075" cy="174.636" rx="1.405" ry="1.476"/>
	<g>
		<g>
			<path fill="#494848" d="M239.693,169.929c2.222-3.724,7.72-3.988,9.925-0.148c0.405,0.706,2.103,0.031,1.631-0.791
				c-2.944-5.127-10.51-3.893-13.268,0.727C237.467,170.579,239.286,170.61,239.693,169.929L239.693,169.929z"/>
		</g>
	</g>
	<g>
		<g>
			<path fill="#D1C173" d="M268.612,168.6c2.924,0.553,6.298,1.29,8.771-0.859c1.876-1.628,2.379-4.376,1.912-6.728
				c-0.303-1.522-3.883-0.61-3.57,0.957c0.279,1.409,0.096,2.868-0.604,4.131c-0.834,1.502-3.918,0.336-5.224,0.09
				C268.261,165.88,266.232,168.151,268.612,168.6L268.612,168.6z"/>
		</g>
	</g>
	<g>
		<g>
			<path fill="#D1C173" d="M274.328,157.744c-0.785,0.175-1.521,0.609-1.91,1.331c-0.14,0.256-0.165,0.635-0.079,0.908
				c0.112,0.364,0.295,0.519,0.563,0.771c0.359,0.34,1.014,0.521,1.495,0.535c0.928,0.027,1.827-0.17,2.567-0.766
				c0.593-0.477,0.931-1.355,0.182-1.88c-0.73-0.513-1.895-0.33-2.562,0.206c-0.127,0.104-0.34,0.184,0.145-0.076
				c-0.272,0.146,0.498-0.154,0.205-0.08c0.117-0.021,0.238-0.041,0.357-0.062c-0.176,0.011-0.088,0.017,0.268,0.016
				c-0.061-0.002-0.122-0.014-0.183-0.024c0.509,0.094,0.329,0.084,0.19,0.029c0.414,0.163,0.281,0.155,0.16,0.075
				c-0.105-0.068-0.203-0.222,0.115,0.124c-0.028-0.031-0.05-0.067-0.07-0.104c0.051,0.104,0.102,0.21,0.153,0.315
				c-0.015-0.037-0.026-0.07-0.033-0.107c0.009,0.116,0.017,0.232,0.025,0.349c-0.003-0.024-0.003-0.048,0.001-0.071
				c-0.026,0.327-0.262,0.564-0.493,0.767c-0.325,0.183-0.409,0.235-0.249,0.155c-0.511,0.249-0.374,0.13-0.179,0.086
				c0.72-0.16,1.68-0.876,1.45-1.727C276.208,157.62,275.047,157.582,274.328,157.744L274.328,157.744z"/>
		</g>
	</g>
	<g>
		<g>
			<path fill="#D1C173" d="M274.675,157.001c0.005,0.272,0.019,0.545,0.033,0.816c0.009,0.157,0.013,0.314,0.016,0.472
				c0.003,0.184-0.103,0.354,0.06,0.035c-0.398,0.782,0.345,1.303,1.053,1.369c0.82,0.075,1.931-0.272,2.332-1.059l0,0
				c0.299-0.587,0.117-1.329,0.109-1.958c-1.148,0.308-2.297,0.615-3.443,0.923c0.289,0.256,0.764,0.513,0.84,0.702
				c0.258,0.64,0.971,0.791,1.602,0.734c0.678-0.062,1.944-0.52,1.985-1.375c0.016-0.331,0.089-0.653,0.111-0.984
				c-1.065,0.381-2.128,0.762-3.192,1.144c0.146,0.071,0.289,0.143,0.424,0.231c-0.193-0.128-0.079-0.176-0.07,0.043
				c0.073,1.759,3.539,1.165,3.604-0.324c0.02-0.452,0.172-0.688,0.329-1.204c-1.194,0.214-2.392,0.428-3.586,0.641
				c0.07,0.431,0.163,0.937,0.166,1.302c0.001,0.101-0.085,0.635-0.021,0.45c-0.088,0.252,0.106-0.049,0.189-0.116
				c0.172-0.078,0.346-0.155,0.518-0.233c0.247-0.036,0.256-0.047,0.023-0.029c0.533,0.244,1.066,0.488,1.602,0.734
				c-0.104-0.374-0.251-0.715-0.202-1.106c-1.194,0.215-2.392,0.428-3.587,0.641c0.081,0.303,0.092,0.576,0.092,0.888
				c1.148-0.308,2.295-0.616,3.443-0.923c-0.105-0.186-0.221-0.362-0.328-0.547c-0.658-1.148-3.958-0.12-3.426,1.239
				c0.131,0.335,0.307,0.648,0.438,0.983c0.318,0.809,1.367,0.841,2.087,0.647c0.567-0.151,1.799-0.802,1.483-1.604
				c-0.132-0.336-0.307-0.649-0.438-0.984c-1.143,0.413-2.285,0.825-3.428,1.238c0.108,0.186,0.223,0.362,0.328,0.548
				c0.609,1.063,3.445,0.301,3.443-0.924c-0.002-0.507,0.006-1.026-0.126-1.52c-0.391-1.474-3.427-0.657-3.585,0.641
				c-0.076,0.618,0.07,1.152,0.235,1.738c0.188,0.676,1.028,0.758,1.602,0.734c1.185-0.047,2.642-0.641,3.066-1.849
				c0.333-0.949,0.159-1.936-0.003-2.905c-0.111-0.662-1.092-0.78-1.604-0.734"/>
			<path fill="#D1C173" d="M275.768,157.002c-0.021,0.33-0.092,0.653-0.109,0.983c1.195-0.213,2.391-0.426,3.587-0.64
				c-0.122-0.303-0.253-0.591-0.49-0.818c-0.147-0.142-0.296-0.261-0.465-0.37c-0.003-0.001-0.346-0.231-0.173-0.078"/>
			<path fill="#D1C173" d="M276.862,156.892c-0.077,0.258-0.309,0.784-0.328,1.204c1.201-0.107,2.402-0.216,3.604-0.324
				c-0.038-0.925-0.333-1.495-1.177-1.913"/>
		</g>
	</g>
	<g>
		<g>
			<path fill="#D1C173" d="M221.013,166.015c-1.886,0.143-4.408,0.76-5.656-1.027c-0.904-1.295-0.731-3.299-0.278-4.715
				c0.49-1.533-3.147-1.093-3.602,0.328c-0.651,2.031-0.458,4.395,0.777,6.163c1.76,2.521,5.803,1.852,8.386,1.657
				c0.745-0.056,1.856-0.518,1.987-1.369C222.762,166.178,221.642,165.968,221.013,166.015L221.013,166.015z"/>
		</g>
	</g>
	<g>
		<g>
			<path fill="#D1C173" d="M214.873,159.823c-0.278-0.073-0.342-0.086-0.19-0.038c0.144,0.061,0.083,0.028-0.186-0.1
				c0.181,0.106-0.234-0.318-0.111-0.09c-0.051-0.104-0.102-0.21-0.153-0.314c0.014,0.036,0.021,0.066,0.023,0.104
				c-0.008-0.115-0.017-0.231-0.025-0.349c-0.011,0.192,0.144-0.385,0.065-0.203c0.056-0.086,0.112-0.171,0.167-0.257
				c-0.098,0.119-0.026,0.055,0.218-0.192c-0.104,0.099-0.348,0.209,0.225-0.124c-0.321,0.187,0.469-0.146,0.198-0.068
				c-0.276,0.079,0.538-0.068,0.246-0.044c-0.283,0.022,0.49,0.035,0.204-0.002c0.465,0.062,0.309,0.084,0.154,0.024
				c0.417,0.16,0.167,0.09,0.035-0.015c-0.7-0.563-1.915-0.287-2.563,0.206c-0.646,0.492-0.874,1.323-0.182,1.881
				c1.136,0.914,2.913,0.666,4.024-0.153c0.541-0.397,0.945-1.041,0.793-1.729c-0.171-0.771-1.066-1.029-1.72-1.176
				c-0.828-0.185-1.964,0.33-2.324,1.103c-0.153,0.33-0.142,0.712,0.078,1.01C214.106,159.639,214.482,159.735,214.873,159.823
				L214.873,159.823z"/>
		</g>
	</g>
	<g>
		<g>
			<path fill="#D1C173" d="M215.752,157.257c0.082,0.066,0.12,0.149,0.113,0.245c-0.004-0.156,0.008-0.313,0.014-0.472
				c0.013-0.271,0.029-0.544,0.033-0.816c0.011-0.678-0.534-0.994-1.161-1.051c-0.804-0.074-1.525,0.233-2.116,0.756
				c0.288-0.255-0.252,0.121-0.324,0.176c-0.385,0.293-0.697,0.66-0.878,1.11c1.165-0.001,2.33-0.004,3.495-0.006
				c-0.021-0.438-0.098-0.865-0.126-1.301c-0.021-0.334-0.472-0.574-0.735-0.656c-0.578-0.179-1.276-0.09-1.814,0.177
				c-0.941,0.465-1.756,1.086-1.802,2.214c1.201-0.107,2.401-0.216,3.604-0.324c-0.026-0.59-0.18-0.975-0.344-1.519
				c-0.449-1.482-3.373-0.647-3.587,0.641c-0.137,0.815-0.269,1.643-0.11,2.467c0.211,1.106,1.346,1.607,2.364,1.647
				c0.968,0.039,2.154-0.342,2.442-1.375c0.169-0.608,0.282-1.098,0.203-1.738c-0.081-0.663-1.116-0.778-1.603-0.734
				c-0.827,0.075-1.756,0.516-1.985,1.375c-0.106,0.396-0.108,0.794-0.109,1.203c-0.004,1.782,2.904,1.02,3.495-0.007
				c0.106-0.186,0.222-0.362,0.329-0.548c-1.129-0.103-2.258-0.206-3.387-0.31c-0.131,0.335-0.307,0.649-0.438,0.984
				c-0.724,1.845,2.856,1.666,3.387,0.311c0.131-0.335,0.307-0.649,0.438-0.985c0.313-0.798-0.275-1.296-1.053-1.368
				c-0.858-0.078-1.889,0.283-2.334,1.059c-0.106,0.184-0.222,0.361-0.329,0.547c1.165-0.002,2.33-0.005,3.495-0.007
				c0-0.408,0.003-0.807,0.109-1.204c-1.194,0.215-2.391,0.428-3.585,0.642c0.043,0.366-0.141,0.76-0.237,1.106
				c0.814-0.459,1.629-0.917,2.443-1.376c-0.207-0.02-0.225-0.013-0.055,0.021c0.241,0.055-0.071-0.109,0.083,0.054
				c-0.192-0.203,0.024,0.142-0.072-0.133c-0.042-0.121-0.057-0.251-0.073-0.378c-0.046-0.35,0.104-1.099,0.184-1.576
				c-1.194,0.213-2.391,0.427-3.586,0.641c0.086,0.285,0.298,0.584,0.312,0.887c0.038,0.863,0.846,1.12,1.618,1.051
				c0.674-0.061,1.95-0.521,1.985-1.375c0-0.001,0.097-0.489,0.011-0.294c-0.091,0.212-0.783,0.569-0.281,0.32
				c-0.852-0.159-1.702-0.319-2.552-0.479c0.015,0.224,0.083,0.448,0.094,0.669c0.079,1.655,3.006,1.205,3.495-0.008
				c0.169-0.418-0.218,0.05,0.027-0.109c0.267-0.173,0.499-0.359,0.74-0.572c-1.093-0.099-2.185-0.197-3.277-0.295
				c-0.011,0.75-0.192,1.552,0.16,2.239c0.385,0.749,1.848,0.456,2.406,0.197C215.585,158.649,216.147,158.025,215.752,157.257
				L215.752,157.257z"/>
		</g>
	</g>
	<g>
		<g>
			<path fill="#D1C173" d="M239.779,184.834c-0.17,3.898-0.65,7.775-0.695,11.68c0.822-0.43,1.643-0.859,2.465-1.289
				c-2.543-0.225-5.03,0.277-7.38,1.242c-2.298,0.943-0.215,2.324,1.455,1.639c1.482-0.605,2.979-0.844,4.579-0.703
				c0.659,0.059,2.453-0.363,2.465-1.289c0.044-3.906,0.523-7.783,0.695-11.682C243.43,182.846,239.836,183.535,239.779,184.834
				L239.779,184.834z"/>
		</g>
	</g>
	<g>
		<g>
			<path fill="#D1C173" d="M247.39,185.529c0.167,3.805,0.646,7.59,0.689,11.402c0.009,0.834,0.894,0.934,1.57,0.873
				c1.653-0.145,3.265,0.184,4.79,0.809c1.156,0.477,4.391-1.17,2.816-1.816c-2.311-0.949-4.673-1.359-7.166-1.139
				c0.523,0.291,1.047,0.582,1.57,0.873c-0.045-3.998-0.525-7.969-0.701-11.959C250.905,183.297,247.324,184.055,247.39,185.529
				L247.39,185.529z"/>
		</g>
	</g>
	<rect x="212.695" y="231.512" fill="#494848" width="62.7" height="23.58"/>
	<rect x="208.367" y="249.547" fill="#494848" width="70.838" height="5.545"/>
	<g>
		<g>
			<path fill="#FFFFFF" d="M518.941-99.021c0.368,0,2.032-0.721,1.16-0.721C519.731-99.743,518.068-99.021,518.941-99.021
				L518.941-99.021z"/>
		</g>
	</g>
</g>
<path fill="#FFFFFF" d="M272.711,154.145c-0.229-2.883-1.082-5.545-1.947-8.284c-0.599-1.89-2.521-2.277-3.924-1.66
	c-1.002-1.419-2.24-2.658-3.565-3.876c-0.513-0.47-1.152-0.73-1.801-0.778c-1.131-1.254-2.343-2.433-3.59-3.534
	c-0.892-0.786-1.925-0.872-2.807-0.552c-1.239-2.04-5.14-1.566-5.161,1.435c-0.046,6.822,4.268,10.612,9.925,12.007
	c-1.65,5.896,2.877,14.178,9.602,12.999c1.571-0.275,2.199-2.041,1.936-3.41c-0.114-0.601-0.271-1.189-0.445-1.774
	C271.966,156.303,272.803,155.295,272.711,154.145z"/>
</svg>
