<?xml version="1.0" encoding="utf-8"?>
<!-- Generator: Adobe Illustrator 16.0.0, SVG Export Plug-In . SVG Version: 6.00 Build 0)  -->
<!DOCTYPE svg PUBLIC "-//W3C//DTD SVG 1.1//EN" "http://www.w3.org/Graphics/SVG/1.1/DTD/svg11.dtd">
<svg version="1.1" id="Calque_1" xmlns="http://www.w3.org/2000/svg" xmlns:xlink="http://www.w3.org/1999/xlink" x="0px" y="0px"
	 width="500px" height="500px" viewBox="-50 -75 500 500" enable-background="new -50 -75 500 500" xml:space="preserve">
<ellipse fill="#FFB032" cx="202.194" cy="174.77" rx="242.467" ry="247.77"/>
<ellipse fill="#FFFFFF" cx="201.823" cy="31.776" rx="58.972" ry="59.767"/>
<path fill="#494848" d="M102.39,366.152l0.29,1.051c2.452,1.519,4.969,2.931,7.554,4.221c1.404-0.657,2.818-1.272,4.24-1.84
	c-1.424-0.439-2.848-0.886-4.286-1.29C107.719,367.591,105.088,366.815,102.39,366.152z"/>
<path fill="#FFFFFF" d="M137.003,364.229c10.396,3.711,20.762,6.566,31.269,8.754c10.414-0.058,20.81,0.431,31.171,2.35
	c1.149,0.216,2.064,0.761,2.774,1.487c9.02-1.03,18.071-1.662,27.271-0.936c2.262,0.18,3.949,1.259,4.963,2.729
	c3.348-0.275,6.709-0.451,10.069-0.515c1.956-0.391,3.908-0.799,5.857-1.224c0.847-0.533,1.858-0.906,3.074-0.99
	c0.616-0.037,1.232-0.087,1.846-0.127c16.367-3.848,32.447-8.986,47.7-15.646l11.035-41.608l-56.837-208.411l-112.21,0.393
	L89.612,319.29l9.038,33.142C111.945,354.031,125.897,360.262,137.003,364.229z"/>
<rect x="95.182" y="339.713" fill="#FFB032" width="246.24" height="39.123"/>
<g>
	<g>
		<g>
			<g>
				<path fill="#FFFFFF" d="M104.126,342.276l1.296-2.393c-0.013-0.012-0.133,0.208-0.039,0.445
					c0.065,0.231,0.189,0.442,0.191,0.442l-1.335,2.372c0,0.003-0.112-0.202-0.165-0.428
					C103.994,342.484,104.114,342.268,104.126,342.276z"/>
				<path fill="#FFFFFF" d="M105.438,342.352l1.382-2.353c0.007-0.031-0.952-0.28-0.959-0.234l-1.318,2.381
					C104.55,342.103,105.446,342.322,105.438,342.352z"/>
				<polygon fill="#FFFFFF" points="106.698,342.892 108.176,340.592 107.273,340.175 105.859,342.51 				"/>
				<polygon fill="#FFFFFF" points="107.913,343.531 109.478,341.289 108.609,340.812 107.103,343.095 				"/>
				<polygon fill="#FFFFFF" points="109.092,344.238 110.75,342.05 109.901,341.532 108.304,343.757 				"/>
				<polygon fill="#FFFFFF" points="110.238,344.99 111.983,342.869 111.158,342.313 109.472,344.48 				"/>
				<polygon fill="#FFFFFF" points="111.336,345.814 113.163,343.761 112.379,343.152 110.607,345.253 				"/>
			</g>
		</g>
	</g>
</g>
<ellipse fill="#FFFFFF" cx="134.284" cy="324.491" rx="44.465" ry="34.195"/>
<ellipse fill="#FFFFFF" cx="200.762" cy="326.631" rx="44.464" ry="34.195"/>
<ellipse fill="#FFFFFF" cx="271.115" cy="326.632" rx="44.465" ry="34.194"/>
<rect x="189.751" y="97.808" transform="matrix(0.719 -0.695 0.695 0.719 -18.9973 171.1713)" fill="#FFB032" width="24.881" height="22.543"/>
</svg>
