<?xml version="1.0" encoding="utf-8"?>
<!-- Generator: Adobe Illustrator 16.0.0, SVG Export Plug-In . SVG Version: 6.00 Build 0)  -->
<!DOCTYPE svg PUBLIC "-//W3C//DTD SVG 1.1//EN" "http://www.w3.org/Graphics/SVG/1.1/DTD/svg11.dtd">
<svg version="1.1" id="Calque_1" xmlns="http://www.w3.org/2000/svg" xmlns:xlink="http://www.w3.org/1999/xlink" x="0px" y="0px"
	 width="400px" height="350px" viewBox="220.945 122.64 400 350" enable-background="new 220.945 122.64 400 350"
	 xml:space="preserve">
<path fill="#56B2B2" d="M416.254,123.64c86.621,0,156.841,71.756,156.841,160.271c0,85.847-70.22,161.27-156.841,161.27
	c-86.621,0-156.841-75.423-156.841-161.27C259.413,195.396,329.633,123.64,416.254,123.64z"/>
<ellipse fill="#FFFFFF" cx="416.106" cy="201.332" rx="38.143" ry="38.66"/>
<polygon fill="#FFFFFF" points="475.042,385.525 356.166,383.489 297.296,317.714 357.305,252.977 476.181,254.014 535.05,319.788 
	"/>
<polygon fill="#56B2B2" points="470.712,251.175 543.3,259.187 527.958,398.209 455.369,391.198 "/>
<ellipse fill="#56B2B2" cx="416.106" cy="252.977" rx="29.5" ry="11.985"/>
<polygon fill="#56B2B2" points="304.18,395.213 380.068,387.568 361.946,235.984 286.056,242.628 "/>
</svg>
