<?xml version="1.0" encoding="utf-8"?>
<!-- Generator: Adobe Illustrator 16.0.0, SVG Export Plug-In . SVG Version: 6.00 Build 0)  -->
<!DOCTYPE svg PUBLIC "-//W3C//DTD SVG 1.1//EN" "http://www.w3.org/Graphics/SVG/1.1/DTD/svg11.dtd">
<svg version="1.1"
	 id="Calque_1" sodipodi:docname="spam.svg" inkscape:version="0.48.5 r10040" xmlns:dc="http://purl.org/dc/elements/1.1/" xmlns:cc="http://creativecommons.org/ns#" xmlns:rdf="http://www.w3.org/1999/02/22-rdf-syntax-ns#" xmlns:sodipodi="http://sodipodi.sourceforge.net/DTD/sodipodi-0.dtd" xmlns:inkscape="http://www.inkscape.org/namespaces/inkscape" xmlns:svg="http://www.w3.org/2000/svg"
	 xmlns="http://www.w3.org/2000/svg" xmlns:xlink="http://www.w3.org/1999/xlink" x="0px" y="0px" width="400px" height="291px"
	 viewBox="50 0 400 291" enable-background="new 50 0 400 291" xml:space="preserve">
<sodipodi:namedview  id="namedview29" inkscape:current-layer="Calque_1" inkscape:window-width="1280" inkscape:pageopacity="0" inkscape:window-x="-8" inkscape:window-y="-8" inkscape:window-maximized="1" inkscape:window-height="961" inkscape:pageshadow="2" objecttolerance="10" borderopacity="1" bordercolor="#666666" pagecolor="#ffffff" gridtolerance="10" guidetolerance="10" showgrid="false" inkscape:cy="297.64001" inkscape:cx="420.94501" inkscape:zoom="0.39645207">
	</sodipodi:namedview>
<ellipse id="ellipse3" sodipodi:cy="297.64001" sodipodi:rx="137.243" sodipodi:cx="405.38599" sodipodi:ry="140.243" fill="#FFFFFF" cx="251.521" cy="144.18" rx="137.243" ry="140.243">
</ellipse>
<rect id="rect5" x="195.341" y="75.509" transform="matrix(-0.7351 -0.678 0.678 -0.7351 349.0401 399.2122)" fill="#56B2B2" width="114.349" height="111.808"/>
<rect id="rect7" x="165.009" y="144.908" fill="#56B2B2" width="174.973" height="67.354"/>
<ellipse id="ellipse9" sodipodi:cy="296.64001" sodipodi:rx="7.6869998" sodipodi:cx="326.561" sodipodi:ry="8.0530005" fill="#56B2B2" cx="172.697" cy="143.18" rx="7.687" ry="8.053">
</ellipse>
<ellipse id="ellipse11" sodipodi:cy="296.64001" sodipodi:rx="7.6869998" sodipodi:cx="486.16" sodipodi:ry="8.0530005" fill="#56B2B2" cx="332.295" cy="143.18" rx="7.687" ry="8.053">
</ellipse>
<rect id="rect13" x="171.993" y="99.518" fill="#FFFFFF" width="160.302" height="48.318"/>
<g id="g15" transform="translate(-153.86475,-153.46002)">
	<path id="path17" inkscape:connector-curvature="0" fill="#E52420" d="M361.004,284.81h-9.526v-2.924
		c0-1.365-0.122-2.234-0.365-2.607s-0.65-0.561-1.218-0.561c-0.618,0-1.084,0.252-1.401,0.756c-0.317,0.504-0.476,1.268-0.476,2.292
		c0,1.316,0.178,2.308,0.533,2.975c0.341,0.667,1.308,1.471,2.899,2.411c4.566,2.711,7.442,4.936,8.628,6.673
		c1.187,1.738,1.779,4.54,1.779,8.406c0,2.81-0.329,4.881-0.987,6.213s-1.929,2.447-3.812,3.351
		c-1.885,0.899-4.077,1.353-6.579,1.353c-2.745,0-5.088-0.521-7.029-1.56c-1.941-1.04-3.212-2.362-3.813-3.972
		c-0.602-1.608-0.901-3.891-0.901-6.848v-2.583h9.526v4.799c0,1.479,0.135,2.43,0.402,2.853c0.27,0.422,0.744,0.633,1.426,0.633
		c0.683,0,1.19-0.268,1.523-0.804s0.5-1.332,0.5-2.389c0-2.321-0.317-3.841-0.951-4.557c-0.649-0.715-2.25-1.908-4.8-3.582
		c-2.55-1.689-4.24-2.916-5.068-3.679c-0.829-0.763-1.515-1.819-2.059-3.167c-0.545-1.349-0.816-3.07-0.816-5.166
		c0-3.021,0.387-5.23,1.157-6.627c0.771-1.397,2.019-2.49,3.74-3.277c1.722-0.788,3.801-1.182,6.237-1.182
		c2.663,0,4.934,0.43,6.81,1.291c1.876,0.861,3.119,1.945,3.728,3.252c0.609,1.309,0.914,3.529,0.914,6.664V284.81L361.004,284.81z"
		/>
	<path id="path19" inkscape:connector-curvature="0" fill="#E52420" d="M373.869,272.87H384.2c2.794,0,4.942,0.219,6.445,0.658
		c1.502,0.438,2.631,1.072,3.387,1.9c0.756,0.828,1.267,1.831,1.535,3.009c0.268,1.178,0.402,3.001,0.402,5.47v3.436
		c0,2.518-0.261,4.354-0.78,5.507c-0.521,1.153-1.475,2.038-2.863,2.655s-3.204,0.926-5.446,0.926h-2.753v15.887h-10.258V272.87z
		 M384.127,279.619v10.038c0.292,0.018,0.544,0.025,0.755,0.025c0.942,0,1.597-0.231,1.962-0.695
		c0.365-0.463,0.549-1.425,0.549-2.887v-3.24c0-1.349-0.211-2.226-0.634-2.632C386.336,279.822,385.458,279.619,384.127,279.619
		L384.127,279.619z"/>
	<path id="path21" inkscape:connector-curvature="0" fill="#E52420" d="M425.444,272.87l5.866,39.447h-10.483l-0.55-7.09h-3.67
		l-0.617,7.09h-10.604l5.232-39.447H425.444L425.444,272.87z M420.008,298.234c-0.52-4.468-1.04-9.991-1.562-16.568
		c-1.045,7.554-1.701,13.077-1.969,16.568H420.008z"/>
	<path id="path23" inkscape:connector-curvature="0" fill="#E52420" d="M473.498,272.87v39.447h-8.967l-0.012-26.631l-3.568,26.631
		h-6.359l-3.765-26.021l-0.013,26.021h-8.967V272.87h13.272c0.395,2.371,0.8,5.166,1.218,8.387l1.456,10.033l2.357-18.42H473.498
		L473.498,272.87z"/>
</g>
<rect id="rect25" x="168.845" y="114.745" fill="#010202" width="0.176" height="0.352"/>
<rect id="rect27" x="171.993" y="147.075" fill="#56B2B2" width="160.302" height="24.247"/>
</svg>
