<?xml version="1.0" encoding="utf-8"?>
<!-- Generator: Adobe Illustrator 16.0.0, SVG Export Plug-In . SVG Version: 6.00 Build 0)  -->
<!DOCTYPE svg PUBLIC "-//W3C//DTD SVG 1.1//EN" "http://www.w3.org/Graphics/SVG/1.1/DTD/svg11.dtd">
<svg version="1.1" id="Calque_1" xmlns="http://www.w3.org/2000/svg" xmlns:xlink="http://www.w3.org/1999/xlink" x="0px" y="0px"
	 width="500px" height="500px" viewBox="0 0 500 500" enable-background="new 0 0 500 500" xml:space="preserve">
<ellipse fill="#FFB032" cx="254.637" cy="250.729" rx="245.363" ry="250.729"/>
<path fill="#4A4848" d="M330.512,110.556c0-12.008-9.735-21.744-21.746-21.744H198.944c-12.009,0-21.743,9.736-21.743,21.744
	v278.786c0,12.008,9.734,21.738,21.743,21.738h109.822c12.012,0,21.746-9.732,21.746-21.738V110.556z M269.498,118.225
	c0,1.9-1.539,3.439-3.438,3.439h-22.849c-1.899,0-3.438-1.539-3.438-3.439v-0.944c0-1.9,1.538-3.439,3.438-3.439h22.849
	c1.898,0,3.438,1.539,3.438,3.439V118.225z M254.856,402.83c-7.842,0-14.2-6.354-14.2-14.197c0-7.842,6.357-14.197,14.2-14.197
	c7.842,0,14.198,6.355,14.198,14.197S262.696,402.83,254.856,402.83z"/>
<g id="XMLID_1_">
	<g>
		<rect x="189.713" y="135.745" fill="#FFFFFF" width="129.847" height="229.97"/>
	</g>
</g>
</svg>
