<?xml version="1.0" encoding="utf-8"?>
<!-- Generator: Adobe Illustrator 16.0.0, SVG Export Plug-In . SVG Version: 6.00 Build 0)  -->
<!DOCTYPE svg PUBLIC "-//W3C//DTD SVG 1.1//EN" "http://www.w3.org/Graphics/SVG/1.1/DTD/svg11.dtd">
<svg version="1.1" id="Calque_1" xmlns="http://www.w3.org/2000/svg" xmlns:xlink="http://www.w3.org/1999/xlink" x="0px" y="0px"
	 width="400px" height="300px" viewBox="0 0 400 300" enable-background="new 0 0 400 300" xml:space="preserve">
<ellipse fill="#FFFFFF" cx="190.232" cy="148.64" rx="137.242" ry="140.243"/>
<g>
	<path fill="#56B2B2" d="M208.452,156.308l0.404-0.467c-0.146-0.021-0.29-0.045-0.437-0.066
		C208.432,155.952,208.441,156.131,208.452,156.308z"/>
	<path fill="#56B2B2" d="M304.663,140.957c0-9.39-28.92-16.999-64.594-16.999c-13.115,0-25.31,1.031-35.497,2.799
		c-0.653-3.002-1.371-5.791-2.141-8.354l34.292-29.666L236.26,88.2l0.466-0.125l-7.466-27.85l20.952-18.128l-3.402-3.933
		l-23.361,20.213l0.229,0.266l7.508,28.008l-30.552,26.432c-0.756-1.964-1.552-3.723-2.379-5.258c3.84-2.623,6.36-7.033,6.36-12.033
		c0-6.803-4.668-12.499-10.971-14.104l-3.619-16.219l-3.577,16.219c-6.304,1.604-10.974,7.301-10.974,14.104
		c0,5,2.521,9.41,6.361,12.033c-0.677,1.253-1.327,2.672-1.955,4.213l-29.348-25.389l7.503-27.994l0.255-0.293l-23.36-20.217
		l-3.402,3.933l20.938,18.118l-7.477,27.891l0.488,0.131l-0.462,0.534l32.979,28.532c-0.84,2.668-1.615,5.623-2.325,8.802
		c-9.27-1.353-19.93-2.125-31.279-2.125c-35.674,0-64.594,7.61-64.594,16.999c0,8.427,23.307,15.418,53.878,16.762l-6.352,5.494
		c0.164,0.207,0.323,0.417,0.482,0.627c0.411,0.465,0.836,0.921,1.273,1.385c0.353,0.371,0.685,0.756,1.021,1.139
		c0.191,0.156,0.369,0.345,0.532,0.541c0.068,0.051,0.146,0.086,0.21,0.142l0.037-0.032l6.168,6.691l-28.938,25.031l3.402,3.933
		l30.956-26.776c0.16-0.109,0.319-0.221,0.485-0.316l1.563-1.439l-9.704-10.525l6.558-5.674c1.001,0.014,2.007,0.021,3.02,0.021
		c9.081,0,17.718-0.495,25.558-1.387l-20.333,17.594l0.204,0.234l7.359,27.457l-42.125,39.174l3.236,4.123l44.291-41.188l0.301-0.08
		l-7.469-27.86l15.914-13.771c-0.146,3.666-0.225,7.42-0.225,11.244c0,40.233,8.479,72.851,18.942,72.851
		c10.461,0,18.94-32.615,18.94-72.851c0-3.75-0.074-7.435-0.216-11.031l17.708,15.324l-7.471,27.876l0.487,0.131l-0.502,0.58
		l46.289,40.04l3.404-3.935l-44.153-38.19l7.517-28.041l0.255-0.295l-23.201-20.078c9.194,1.324,19.744,2.078,30.965,2.078
		c0.451,0,0.896-0.007,1.346-0.009l6.923,5.99l-9.703,10.524l1.563,1.44c0.308,0.18,0.6,0.388,0.886,0.604l30.594,26.467
		l3.401-3.933l-28.944-25.042l6.137-6.657l0.037,0.031c0.065-0.056,0.143-0.093,0.211-0.142c0.164-0.197,0.342-0.384,0.531-0.541
		c0.338-0.383,0.67-0.769,1.021-1.14c0.438-0.463,0.861-0.92,1.273-1.385c0.16-0.209,0.317-0.419,0.481-0.627l-6.653-5.757
		C280.534,156.621,304.663,149.532,304.663,140.957z M208.452,156.308c-0.012-0.177-0.021-0.355-0.031-0.533
		c0.146,0.021,0.29,0.045,0.437,0.066L208.452,156.308z"/>
</g>
</svg>
