<?xml version="1.0" encoding="UTF-8" standalone="no"?>
<svg width="27px" height="57px" viewBox="0 0 27 57" version="1.1" xmlns="http://www.w3.org/2000/svg" xmlns:xlink="http://www.w3.org/1999/xlink" xmlns:sketch="http://www.bohemiancoding.com/sketch/ns">
    <!-- Generator: Sketch 3.1.1 (8761) - http://www.bohemiancoding.com/sketch -->
    <title>Rectangle 1</title>
    <desc>Created with Sketch.</desc>
    <defs></defs>
    <g id="Page-1" stroke="none" stroke-width="1" fill="none" fill-rule="evenodd" sketch:type="MSPage">
        <g id="Artboard-1" sketch:type="MSArtboardGroup" transform="translate(-36.000000, -98.000000)" fill="#000000">
            <path d="M38.9926339,98 C37.3398479,98 36,99.3527762 36,101.004289 L36,151.995711 C36,153.654934 37.3389342,155 38.9926339,155 L60.0073661,155 C61.6601521,155 63,153.647224 63,151.995711 L63,101.004289 C63,99.3450659 61.6610658,98 60.0073661,98 L38.9926339,98 Z M49.5,153 C50.3284271,153 51,152.328427 51,151.5 C51,150.671573 50.3284271,150 49.5,150 C48.6715729,150 48,150.671573 48,151.5 C48,152.328427 48.6715729,153 49.5,153 Z M38,104 L38,148 L61,148 L61,104 L38,104 Z M47,102 L47,103 L52,103 L52,102 L47,102 Z" id="Rectangle-1" sketch:type="MSShapeGroup"></path>
        </g>
    </g>
</svg>